<?xml version="1.0" encoding="iso-8859-1"?>
<!-- Generator: Adobe Illustrator 30.5.1, SVG Export Plug-In . SVG Version: 9.03 Build 0)  -->
<svg version="1.1" id="optical_designs" xmlns="http://www.w3.org/2000/svg" xmlns:xlink="http://www.w3.org/1999/xlink" x="0px"
	 y="0px" viewBox="0 0 172.54 172.54" style="enable-background:new 0 0 172.54 172.54;" xml:space="preserve">
<path style="fill:none;stroke:#231F20;stroke-miterlimit:10;" d="M19.13,86.27c0,24.04,0.85,46.82,2.27,68.2h-4.03
	c-6.06-11.41-17-35.66-16.99-68.2c0-32.54,10.93-56.79,16.99-68.2h4.03C19.98,39.45,19.13,62.23,19.13,86.27z"/>
<path style="fill:none;stroke:#231F20;stroke-miterlimit:10;" d="M53.68,149.65H49.2c-3.92-3.61-27.8-26.35-27.8-63.38
	S45.28,26.5,49.2,22.89h4.48v126.77V149.65z"/>
<path style="fill:none;stroke:#231F20;stroke-miterlimit:10;" d="M53.68,149.65h19.93l10.53-20.16
	c-2.12-1.58-21.73-16.7-21.73-43.23s19.6-41.65,21.73-43.23L73.61,22.87H53.68"/>
<path style="fill:none;stroke:#231F20;stroke-miterlimit:10;" d="M124.895,35.66H97.58l-8.51,10.3C92.54,50.82,102,65.37,102,86.28
	c0,20.9-9.46,35.45-12.93,40.31l8.51,10.3h27.32c-4.5-8.52-12.54-26.5-12.54-50.62C112.36,62.169,120.404,44.184,124.895,35.66z"/>
<path style="fill:none;stroke:#231F20;stroke-miterlimit:10;" d="M124.895,35.66c-4.491,8.524-12.535,26.509-12.535,50.61
	c0,24.12,8.04,42.1,12.54,50.62h6.05c4.42-6.45,15.678-24.698,15.68-50.615c-0.001-25.927-11.26-44.165-15.68-50.615
	C130.95,35.66,124.895,35.66,124.895,35.66z"/>
<path style="fill:none;stroke:#231F20;stroke-miterlimit:10;" d="M172.16,86.27c0,14.53-1.1,32.1-4.7,51.74h-13.44
	c-3.51-12.72-7.01-30.44-7.01-51.74c0-13.2,1.34-31.21,7.01-51.74h13.44C170.08,48.82,172.16,66.31,172.16,86.27z"/>
</svg>
